# xmcd
#
# Track frame offsets:
#	187
#	23190
#	47880
#	70130
#	97805
#	125530
#	150992
#	176030
#	200602
#	225005
#	251392
#	273852
#
# Disc length: 3935 seconds
#
# Revision: 1
# Processed by: cddbd v1.4PL0 Copyright (c) Steve Scherf et al.
# Submitted via: EasyCDDAExtractor 5.0.7
#
DISCID=900f5d0c
DTITLE=Elvis Phuong and Kieu Nga - Nguoi Toi Yeu
DYEAR=1900
DGENRE=
TTITLE0=Nguoi toi yeu
TTITLE1=Dung de anh xa em
TTITLE2=Ban qui
TTITLE3=Ngung giac mo
TTITLE4=Nguoi lia xa
TTITLE5=Tuoi 33
TTITLE6=Loi yeu em
TTITLE7=Khong bao gio noi yeu anh
TTITLE8=Yeu nhau lan nua
TTITLE9=Nhung buon vui trong cuoc tinh
TTITLE10=Chut vuong van trong tim
TTITLE11=Cho nhung nguoi toi yeu
EXTD=
EXTT0=
EXTT1=
EXTT2=
EXTT3=
EXTT4=
EXTT5=
EXTT6=
EXTT7=
EXTT8=
EXTT9=
EXTT10=
EXTT11=
PLAYORDER=
